# xmcd
#
# Track frame offsets:
#	150
#	10702
#	29891
#	43388
#	62657
#	76043
#	90115
#	104861
#	119772
#	131727
#	145046
#	149981
#	175170
#	192148
#	207488
#	223650
#	238193
#	254337
#	272435
#	287351
#	307200
#	323706
#
# Disc length: 4542 seconds
#
# Revision: 0
# Processed by: cddbd v1.5.2PL0 Copyright (c) Steve Scherf et al.
# Submitted via: dBpowerAMP V4.0
#
DISCID=5711bc16
DTITLE=lyne et claude - entre nous
DYEAR=2007
DGENRE=Country
TTITLE0=ENTRE NOUS
TTITLE1=J'AI FAIT LE REVE
TTITLE2=ÉTOILE DE MES REVES
TTITLE3=LA BALLADE DE L'AMOUR
TTITLE4=COMME J'AI TOUJOURS ENVIE D'AIMER
TTITLE5=GARDE MOI TON AMOUR POUR TOUJOURS
TTITLE6=UN GRAND AMI
TTITLE7=IL SILENZIO
TTITLE8=ON ENTRE SEUL
TTITLE9=ON EST FAIT POUR VIVRE ENSEMBLE
TTITLE10=LES JOYEUX TROUBADOURS
TTITLE11=SOUVENIRS  D'UNE PETITE FILLE
TTITLE12=JE DIT DES MOTS D'AMOUR
TTITLE13=JE FINIRAI PAR L'OUBLIER
TTITLE14=MILLE COLOMBES
TTITLE15=MOI QUI NE SAVAIS PAS
TTITLE16=L'HYMNE A L'AMOUR
TTITLE17=LES COEURS  N'ONT PAS DE FENETRES
TTITLE18=QUAND ON EST DEUX
TTITLE19=ENTRE NOUS
TTITLE20=LA PREMIERE ÉTOILE
TTITLE21=QUAND ON A QUE L'AMOUR
EXTD=entre nous
EXTT0=
EXTT1=
EXTT2=
EXTT3=
EXTT4=
EXTT5=
EXTT6=
EXTT7=
EXTT8=
EXTT9=
EXTT10=
EXTT11=
EXTT12=
EXTT13=
EXTT14=
EXTT15=
EXTT16=
EXTT17=
EXTT18=
EXTT19=
EXTT20=
EXTT21=
PLAYORDER=
